<svg width="101" height="16" viewBox="0 0 101 16" fill="none" xmlns="http://www.w3.org/2000/svg">
    <path d="M8.87095 15.9537C4.00246 15.9537 0.889435 13.7308 0 10.5586H5.73452C6.08561 11.4153 7.23251 11.8784 8.73051 11.8784C10.2051 11.8784 10.9541 11.4616 10.9541 10.8596C10.9541 10.4197 10.6966 10.165 9.94763 10.0955L4.51739 9.63242C2.29381 9.44718 0.0234062 8.15051 0.0234062 5.53401C0.0234062 2.52388 2.90237 0 7.72404 0C12.2414 0 15.4247 2.22286 16.1737 5.34877H10.4392C10.0413 4.53835 9.03479 4.07525 7.60701 4.07525C6.24945 4.07525 5.36002 4.5615 5.36002 5.14038C5.36002 5.55716 5.64089 5.7424 6.27286 5.78871L12.0308 6.27496C14.4182 6.48336 16.2439 7.96527 16.2439 10.466C16.2439 14.0781 12.8968 15.9537 8.87095 15.9537Z" fill="#111111"/>
    <path fill-rule="evenodd" clip-rule="evenodd" d="M25.6653 15.9537C20.4457 15.9537 17.122 12.2258 17.122 7.98842C17.122 3.72793 20.4457 0.0463091 25.6653 0.0463091C30.9082 0.0463091 34.2319 3.72793 34.2319 7.98842C34.2319 12.2258 30.9082 15.9537 25.6653 15.9537ZM25.6653 11.3227C27.5846 11.3227 28.8719 9.84081 28.8719 7.98842C28.8719 6.13603 27.5846 4.67728 25.6653 4.67728C23.7694 4.67728 22.482 6.13603 22.482 7.98842C22.482 9.84081 23.7694 11.3227 25.6653 11.3227Z" fill="#111111"/>
    <path d="M35.4169 9.42402C35.4169 13.6151 38.0384 16 43.2345 16C48.4541 16 51.0756 13.6151 51.0756 9.42402V0.463096H45.739V9.00724C45.739 10.4428 44.8496 11.369 43.2345 11.369C41.6429 11.369 40.7535 10.4428 40.7535 9.00724V0.463096H35.4169V9.42402Z" fill="#111111"/>
    <path d="M77.1267 15.9537C72.5625 15.9537 68.7707 12.9436 68.7707 8.03473C68.7707 3.10275 72.5625 0.0463091 77.1267 0.0463091C81.8781 0.0463091 84.8741 2.98697 85.3423 6.27496H79.7482C79.6077 5.30246 78.5545 4.5615 77.1501 4.5615C75.5117 4.5615 74.1307 5.78871 74.1307 7.94211C74.1307 10.1187 75.5117 11.3922 77.1501 11.3922C78.5545 11.3922 79.5609 10.6975 79.7482 9.74819H85.3423C84.8039 13.013 81.9718 15.9537 77.1267 15.9537Z" fill="#111111"/>
    <path d="M86.6786 0.463096V15.5369H100.348V11.2996H91.945V9.91027H100.301V6.08972H91.945V4.70043H100.348V0.463096H86.6786Z" fill="#111111"/>
    <path d="M60.6881 5.11367L71.0516 15.5833H64.3144L57.3757 8.55309V15.5833H52.6994V0.416667H68.2391V1.56876C68.2391 3.52656 66.6643 5.11367 64.7218 5.11367H60.6881Z" fill="#111111"/>
    </svg>
    